<?xml version="1.0" standalone="no"?>
<!DOCTYPE svg PUBLIC "-//W3C//DTD SVG 20010904//EN"
 "http://www.w3.org/TR/2001/REC-SVG-20010904/DTD/svg10.dtd">
<svg version="1.0" xmlns="http://www.w3.org/2000/svg"
 width="1748.000000pt" height="1748.000000pt" viewBox="0 0 1748.000000 1748.000000"
 preserveAspectRatio="xMidYMid meet">

<g transform="translate(0.000000,1748.000000) scale(0.100000,-0.100000)"
fill="#000000" stroke="none">
<path d="M8410 16637 c-3 -3 -54 -8 -115 -11 -1330 -79 -2480 -434 -3625
-1119 -1615 -966 -2839 -2500 -3442 -4312 -244 -734 -371 -1511 -385 -2365 -5
-300 -1 -400 33 -800 112 -1312 553 -2546 1319 -3690 768 -1149 1803 -2059
3045 -2679 896 -447 1791 -700 2770 -785 320 -28 393 -31 720 -31 329 0 436 5
725 31 1193 107 2247 452 3310 1082 1107 657 2055 1597 2727 2707 642 1060
1008 2166 1112 3360 32 372 38 523 33 815 -22 1237 -278 2310 -808 3380 -609
1231 -1516 2271 -2654 3042 -765 519 -1648 922 -2480 1132 -489 123 -866 182
-1480 231 -96 8 -799 18 -805 12z m-2948 -3472 c394 -70 705 -364 794 -751 22
-94 25 -308 5 -399 -67 -321 -262 -565 -563 -704 -257 -119 -590 -118 -845 3
-215 102 -403 300 -483 508 -55 143 -64 197 -64 383 0 176 8 225 55 353 64
175 205 352 369 462 108 73 278 137 405 153 74 9 257 5 327 -8z m816 -5662 l2
-3203 -990 0 -990 0 0 3205 0 3205 988 -2 987 -3 3 -3202z m2942 3056 c0 -117
3 -150 13 -146 267 116 576 193 899 227 134 14 511 13 649 0 363 -37 645 -113
934 -255 507 -248 899 -653 1184 -1225 129 -259 199 -472 253 -765 l23 -120 3
-1987 2 -1988 -990 0 -990 0 0 1894 0 1894 -21 68 c-42 135 -141 297 -234 382
-60 55 -154 105 -245 129 -92 25 -414 25 -514 0 -64 -16 -259 -105 -768 -351
l-198 -95 0 -1960 0 -1961 -980 0 -980 0 0 3205 0 3205 980 0 980 0 0 -151z"/>
</g>
</svg>
